<svg width="30" height="30" viewBox="0 0 30 30" fill="none" xmlns="http://www.w3.org/2000/svg">
<circle cx="15" cy="15" r="15" fill="black"/>
<g clip-path="url(#clip0_298_446)">
<path d="M14.9993 9.09734C16.9231 9.09734 17.1509 9.10578 17.9074 9.13953C18.6106 9.17047 18.9903 9.28859 19.2434 9.38703C19.5781 9.51641 19.8199 9.67391 20.0703 9.92422C20.3234 10.1773 20.4781 10.4164 20.6074 10.7511C20.7059 11.0042 20.824 11.3867 20.8549 12.087C20.8887 12.8464 20.8971 13.0742 20.8971 14.9952C20.8971 16.9189 20.8887 17.1467 20.8549 17.9033C20.824 18.6064 20.7059 18.9861 20.6074 19.2392C20.4781 19.5739 20.3206 19.8158 20.0703 20.0661C19.8171 20.3192 19.5781 20.4739 19.2434 20.6033C18.9903 20.7017 18.6078 20.8198 17.9074 20.8508C17.1481 20.8845 16.9203 20.893 14.9993 20.893C13.0756 20.893 12.8478 20.8845 12.0912 20.8508C11.3881 20.8198 11.0084 20.7017 10.7553 20.6033C10.4206 20.4739 10.1787 20.3164 9.92838 20.0661C9.67525 19.813 9.52057 19.5739 9.39119 19.2392C9.29275 18.9861 9.17463 18.6036 9.14369 17.9033C9.10994 17.1439 9.1015 16.9161 9.1015 14.9952C9.1015 13.0714 9.10994 12.8436 9.14369 12.087C9.17463 11.3839 9.29275 11.0042 9.39119 10.7511C9.52057 10.4164 9.67807 10.1745 9.92838 9.92422C10.1815 9.67109 10.4206 9.51641 10.7553 9.38703C11.0084 9.28859 11.3909 9.17047 12.0912 9.13953C12.8478 9.10578 13.0756 9.09734 14.9993 9.09734ZM14.9993 7.80078C13.0446 7.80078 12.7999 7.80922 12.0321 7.84297C11.2671 7.87672 10.7412 8.00047 10.2856 8.17766C9.81025 8.36328 9.40807 8.60797 9.00869 9.01016C8.6065 9.40953 8.36182 9.81172 8.17619 10.2842C7.999 10.7427 7.87525 11.2658 7.8415 12.0308C7.80775 12.8014 7.79932 13.0461 7.79932 15.0008C7.79932 16.9555 7.80775 17.2002 7.8415 17.968C7.87525 18.733 7.999 19.2589 8.17619 19.7145C8.36182 20.1898 8.6065 20.592 9.00869 20.9914C9.40807 21.3908 9.81025 21.6383 10.2828 21.8211C10.7412 21.9983 11.2643 22.122 12.0293 22.1558C12.7971 22.1895 13.0418 22.198 14.9965 22.198C16.9512 22.198 17.1959 22.1895 17.9637 22.1558C18.7287 22.122 19.2546 21.9983 19.7103 21.8211C20.1828 21.6383 20.5849 21.3908 20.9843 20.9914C21.3837 20.592 21.6312 20.1898 21.814 19.7173C21.9912 19.2589 22.1149 18.7358 22.1487 17.9708C22.1824 17.203 22.1909 16.9583 22.1909 15.0036C22.1909 13.0489 22.1824 12.8042 22.1487 12.0364C22.1149 11.2714 21.9912 10.7455 21.814 10.2898C21.6368 9.81172 21.3921 9.40953 20.9899 9.01016C20.5906 8.61078 20.1884 8.36328 19.7159 8.18047C19.2574 8.00328 18.7343 7.87953 17.9693 7.84578C17.1987 7.80922 16.954 7.80078 14.9993 7.80078Z" fill="white"/>
<path d="M14.9992 11.3027C12.9573 11.3027 11.3008 12.9593 11.3008 15.0012C11.3008 17.043 12.9573 18.6996 14.9992 18.6996C17.0411 18.6996 18.6977 17.043 18.6977 15.0012C18.6977 12.9593 17.0411 11.3027 14.9992 11.3027ZM14.9992 17.4002C13.6745 17.4002 12.6002 16.3259 12.6002 15.0012C12.6002 13.6765 13.6745 12.6021 14.9992 12.6021C16.3239 12.6021 17.3983 13.6765 17.3983 15.0012C17.3983 16.3259 16.3239 17.4002 14.9992 17.4002Z" fill="white"/>
<path d="M19.7073 11.1564C19.7073 11.6345 19.3192 12.0198 18.8439 12.0198C18.3658 12.0198 17.9805 11.6317 17.9805 11.1564C17.9805 10.6783 18.3686 10.293 18.8439 10.293C19.3192 10.293 19.7073 10.6811 19.7073 11.1564Z" fill="white"/>
</g>
<defs>
<clipPath id="clip0_298_446">
<rect width="14.4" height="14.4" fill="white" transform="translate(7.79932 7.80078)"/>
</clipPath>
</defs>
</svg>
