<svg width="30" height="30" viewBox="0 0 30 30" fill="none" xmlns="http://www.w3.org/2000/svg">
<circle cx="15" cy="15" r="15" fill="black"/>
<g clip-path="url(#clip0_298_452)">
<path d="M18.0435 7.80078H15.6167V17.6095C15.6167 18.7782 14.6833 19.7382 13.5218 19.7382C12.3602 19.7382 11.4268 18.7782 11.4268 17.6095C11.4268 16.4617 12.3395 15.5225 13.4595 15.4808V13.0182C10.9912 13.0599 9 15.0843 9 17.6095C9 20.1556 11.0327 22.2008 13.5425 22.2008C16.0523 22.2008 18.085 20.1347 18.085 17.6095V12.5799C18.9976 13.2477 20.1177 13.6443 21.3 13.6651V11.2025C19.4747 11.1399 18.0435 9.6373 18.0435 7.80078Z" fill="white"/>
</g>
<defs>
<clipPath id="clip0_298_452">
<rect width="14.4" height="14.4" fill="white" transform="translate(7.7998 7.80078)"/>
</clipPath>
</defs>
</svg>
