<svg width="36" height="36" viewBox="0 0 36 36" fill="none" xmlns="http://www.w3.org/2000/svg">
<path d="M33 12.75C33 7.36522 28.6348 3 23.25 3C20.1257 3 17.3446 4.47345 15.5603 6.76081C23.1706 7.05504 29.25 13.3176 29.25 21C29.25 21.1655 29.2472 21.3303 29.2416 21.4944L29.74 21.6277C31.1895 22.0156 32.5156 20.6895 32.1277 19.24L31.9367 18.5259C31.7823 17.9491 31.8751 17.3397 32.1232 16.7966C32.6862 15.564 33 14.1936 33 12.75Z" fill="white"/>
<path fill-rule="evenodd" clip-rule="evenodd" d="M27 21C27 27.6274 21.6274 33 15 33C13.1467 33 11.3916 32.5799 9.82463 31.8297C9.28606 31.5719 8.6759 31.4813 8.09908 31.6357L6.26002 32.1277C4.81052 32.5156 3.48443 31.1895 3.87227 29.74L4.36433 27.9009C4.51867 27.3241 4.42814 26.7139 4.1703 26.1754C3.42011 24.6084 3 22.8533 3 21C3 14.3726 8.37258 9 15 9C21.6274 9 27 14.3726 27 21ZM9.75 22.5C10.5784 22.5 11.25 21.8284 11.25 21C11.25 20.1716 10.5784 19.5 9.75 19.5C8.92157 19.5 8.25 20.1716 8.25 21C8.25 21.8284 8.92157 22.5 9.75 22.5ZM15 22.5C15.8284 22.5 16.5 21.8284 16.5 21C16.5 20.1716 15.8284 19.5 15 19.5C14.1716 19.5 13.5 20.1716 13.5 21C13.5 21.8284 14.1716 22.5 15 22.5ZM20.25 22.5C21.0784 22.5 21.75 21.8284 21.75 21C21.75 20.1716 21.0784 19.5 20.25 19.5C19.4216 19.5 18.75 20.1716 18.75 21C18.75 21.8284 19.4216 22.5 20.25 22.5Z" fill="white"/>
</svg>
