<svg width="16" height="16" viewBox="0 0 16 16" fill="none" xmlns="http://www.w3.org/2000/svg">
<path fill-rule="evenodd" clip-rule="evenodd" d="M8.02078 0C7.68694 0 7.43774 0.181887 7.29633 0.31006C7.14079 0.451052 7.00377 0.629488 6.88546 0.807872C6.64658 1.16803 6.41227 1.63856 6.19992 2.11762C5.77199 3.08304 5.38559 4.19309 5.18364 4.79907C5.18068 4.80796 5.17195 4.81495 5.16139 4.81531C4.52865 4.8367 3.36904 4.89345 2.35833 5.0417C1.85901 5.11494 1.35614 5.21592 0.963514 5.36214C0.770188 5.43414 0.559356 5.5329 0.385454 5.67618C0.209449 5.82119 0 6.07533 0 6.44182C0 6.69529 0.0958856 6.91967 0.182681 7.07979C0.275713 7.25142 0.398664 7.42151 0.530177 7.58212C0.793774 7.90404 1.14232 8.24866 1.50268 8.57641C2.22684 9.23505 3.06546 9.88543 3.54259 10.245C3.55012 10.2507 3.55362 10.2601 3.55051 10.2704C3.36727 10.872 3.04904 11.9729 2.84659 12.9939C2.74604 13.5011 2.66839 14.0159 2.65673 14.4507C2.65093 14.667 2.66045 14.8909 2.7037 15.0962C2.74397 15.2874 2.83247 15.5558 3.05896 15.756C3.31316 15.9807 3.61911 16.0105 3.83095 15.9974C4.04757 15.984 4.26452 15.9213 4.45786 15.8483C4.8483 15.7009 5.28902 15.4543 5.71161 15.188C6.56531 14.6501 7.46928 13.952 7.98336 13.5415C7.99266 13.534 8.00633 13.5338 8.01609 13.5416C8.53006 13.9525 9.43477 14.6511 10.2949 15.1894C10.7208 15.456 11.1661 15.7026 11.5633 15.8498C11.7605 15.9228 11.9796 15.9844 12.1982 15.9975C12.4128 16.0103 12.7103 15.9802 12.9641 15.7717C13.202 15.5764 13.3008 15.3082 13.3467 15.1092C13.395 14.8997 13.4062 14.6722 13.4008 14.4542C13.3901 14.0162 13.3084 13.4994 13.2026 12.9924C12.9894 11.9712 12.6522 10.87 12.457 10.2658C12.4536 10.2551 12.4572 10.2451 12.465 10.2393C12.9446 9.87766 13.7814 9.22818 14.5031 8.57117C14.8622 8.24422 15.2094 7.90058 15.4719 7.57952C15.6029 7.41934 15.7254 7.24966 15.8181 7.07839C15.9046 6.91855 16 6.6947 16 6.44182C16 6.07572 15.791 5.8217 15.6151 5.67665C15.4414 5.53336 15.2308 5.4346 15.0377 5.36261C14.6457 5.21641 14.1435 5.11542 13.6448 5.04216C12.6354 4.89387 11.4767 4.83696 10.8426 4.81544C10.8319 4.81508 10.8233 4.80812 10.8204 4.79915C10.623 4.19136 10.2463 3.08227 9.82702 2.11819C9.61899 1.63984 9.38882 1.16976 9.15295 0.809759C9.03613 0.631466 8.90033 0.452679 8.74533 0.311229C8.60404 0.182279 8.35512 0 8.02078 0Z" fill="#009833"/>
</svg>
