<svg width="38" height="38" viewBox="0 0 38 38" fill="none" xmlns="http://www.w3.org/2000/svg">
<circle cx="19" cy="19" r="19" fill="#009833"/>
<path fill-rule="evenodd" clip-rule="evenodd" d="M20.4886 13C20.4886 12.4477 20.0409 12 19.4886 12C18.9363 12 18.4886 12.4477 18.4886 13V18.493H13C12.4477 18.493 12 18.9407 12 19.493C12 20.0453 12.4477 20.493 13 20.493H18.4886V25.9797C18.4886 26.532 18.9363 26.9797 19.4886 26.9797C20.0409 26.9797 20.4886 26.532 20.4886 25.9797V20.493H25.9797C26.532 20.493 26.9797 20.0453 26.9797 19.493C26.9797 18.9407 26.532 18.493 25.9797 18.493H20.4886V13Z" fill="white"/>
</svg>
