<svg width="449" height="478" viewBox="0 0 449 478" fill="none" xmlns="http://www.w3.org/2000/svg">
<path opacity="0.07" d="M294.043 36.2047L299.18 19.9993L299.098 19.9733L299.016 19.9482L294.043 36.2047ZM374.314 173.237L357.331 173.984L357.333 174.027L357.335 174.07L374.314 173.237ZM365.058 259.173L381.463 263.628L381.465 263.62L381.467 263.613L365.058 259.173ZM332.298 338.207L329.47 354.97L341.054 356.925L346.978 346.78L332.298 338.207ZM264.013 326.686L248.445 319.858L239.688 339.823L261.185 343.449L264.013 326.686ZM273.531 293.977L256.918 290.371L256.918 290.371L273.531 293.977ZM280.564 247.973L297.487 249.582L280.564 247.973ZM279.147 205.639L295.8 202.224L292.53 186.279L276.458 188.853L279.147 205.639ZM226.129 199.125L232.985 183.569L232.767 183.473L232.547 183.383L226.129 199.125ZM181.319 90.2268L197.103 96.5418L197.134 96.4626L197.165 96.3832L181.319 90.2268ZM68.1423 150.542L73.4391 134.388L73.3575 134.361L73.2756 134.335L68.1423 150.542ZM147.687 287.335L164.674 286.692L164.672 286.64L164.67 286.588L147.687 287.335ZM138.191 373.998L154.632 378.321L154.635 378.312L154.637 378.304L138.191 373.998ZM106.397 452.544L103.646 469.32L115.222 471.218L121.105 461.069L106.397 452.544ZM37.6295 441.268L21.8146 435.031L14.0848 454.634L34.8785 458.044L37.6295 441.268ZM47.3855 407.831L63.9403 411.696L63.9403 411.696L47.3855 407.831ZM54.1801 362.554L37.2453 361.067L37.2365 361.167L37.2288 361.268L54.1801 362.554ZM52.763 320.221L69.4807 317.136L66.4854 300.905L50.1733 303.419L52.763 320.221ZM-0.254937 313.706L6.36508 298.048L6.2646 298.005L6.16358 297.964L-0.254937 313.706ZM-45.0644 204.808L-29.2808 211.123L-29.2492 211.044L-29.2183 210.964L-45.0644 204.808ZM232.791 56.549C250.2 47.738 268.619 46.2052 289.07 52.4611L299.016 19.9482C270.682 11.2812 243.149 13.1994 217.437 26.2134L232.791 56.549ZM288.907 52.4101C308.042 58.4754 324.533 72.9922 337.696 98.9991L368.032 83.645C351.878 51.7287 329.155 29.5006 299.18 19.9993L288.907 52.4101ZM337.696 98.9991C349.634 122.585 356.166 147.527 357.331 173.984L391.298 172.489C389.922 141.214 382.154 111.547 368.032 83.645L337.696 98.9991ZM357.335 174.07C358.681 201.488 355.786 228.353 348.648 254.732L381.467 263.613C389.538 233.786 392.814 203.361 391.294 172.403L357.335 174.07ZM348.652 254.717C341.256 281.95 330.896 306.899 317.618 329.634L346.978 346.78C361.853 321.311 373.332 293.57 381.463 263.628L348.652 254.717ZM335.126 321.444L266.841 309.923L261.185 343.449L329.47 354.97L335.126 321.444ZM279.581 333.515C283.462 324.666 286.918 312.443 290.144 297.584L256.918 290.371C253.834 304.576 250.945 314.158 248.445 319.858L279.581 333.515ZM290.144 297.584C293.454 282.336 295.895 266.331 297.487 249.582L263.64 246.364C262.164 261.889 259.917 276.553 256.918 290.371L290.144 297.584ZM297.487 249.582C299.134 232.26 298.705 216.386 295.8 202.224L262.493 209.055C264.546 219.063 265.061 231.411 263.64 246.364L297.487 249.582ZM276.458 188.853C260.857 191.353 246.512 189.53 232.985 183.569L219.272 214.681C239.045 223.395 260.045 225.916 281.836 222.425L276.458 188.853ZM232.547 183.383C220.295 178.387 209.676 168.508 201.181 151.723L170.845 167.077C182.22 189.552 198.346 206.155 219.71 214.866L232.547 183.383ZM201.181 151.723C191.06 131.728 190.208 113.774 197.103 96.5418L165.536 83.9117C154.584 111.285 156.861 139.447 170.845 167.077L201.181 151.723ZM197.165 96.3832C204.297 78.0271 216.055 65.0198 232.791 56.549L217.437 26.2134C192.983 38.5904 175.545 58.1468 165.473 84.0704L197.165 96.3832ZM6.89017 170.886C24.6738 161.885 43.0402 160.423 63.0089 166.748L73.2756 134.335C45.1031 125.412 17.5168 127.401 -8.46386 140.55L6.89017 170.886ZM62.8455 166.695C81.7065 172.88 98.1068 187.489 111.312 213.58L141.648 198.226C125.537 166.394 103.045 144.096 73.4391 134.388L62.8455 166.695ZM111.312 213.58C123.073 236.817 129.537 261.594 130.703 288.083L164.67 286.588C163.295 255.344 155.621 225.834 141.648 198.226L111.312 213.58ZM130.699 287.978C131.747 315.661 128.765 342.881 121.746 369.693L154.637 378.304C162.501 348.265 165.849 317.71 164.674 286.692L130.699 287.978ZM121.75 369.675C114.497 397.262 104.448 422.008 91.6894 444.019L121.105 461.069C135.537 436.171 146.684 408.553 154.632 378.321L121.75 369.675ZM109.148 435.768L40.3804 424.492L34.8785 458.044L103.646 469.32L109.148 435.768ZM53.4443 447.504C57.0701 438.309 60.5424 426.251 63.9403 411.696L30.8307 403.966C27.5933 417.833 24.5615 428.065 21.8146 435.031L53.4443 447.504ZM63.9403 411.696C67.4741 396.56 69.8597 380.6 71.1314 363.841L37.2288 361.268C36.0763 376.457 33.9321 390.682 30.8306 403.966L63.9403 411.696ZM71.1149 364.042C72.5946 347.197 72.1337 331.511 69.4807 317.136L36.0453 323.306C38.0318 334.07 38.5156 346.606 37.2453 361.067L71.1149 364.042ZM50.1733 303.419C34.8863 305.775 20.4046 303.984 6.36508 298.048L-6.87495 329.364C13.0282 337.779 33.8917 340.33 55.3527 337.022L50.1733 303.419ZM6.16358 297.964C-6.08869 292.969 -16.7073 283.089 -25.2027 266.304L-55.5383 281.658C-44.1632 304.133 -28.0381 320.737 -6.67343 329.448L6.16358 297.964ZM-25.2027 266.304C-35.3232 246.309 -36.1755 228.355 -29.2808 211.123L-60.8479 198.493C-71.8 225.866 -69.5231 254.028 -55.5383 281.658L-25.2027 266.304ZM-29.2183 210.964C-22.1131 192.676 -10.2313 179.552 6.89017 170.886L-8.46386 140.55C-33.1759 153.058 -50.8125 172.66 -60.9105 198.652L-29.2183 210.964Z" fill="#009833"/>
</svg>
