<svg width="25" height="19" viewBox="0 0 25 19" fill="none" xmlns="http://www.w3.org/2000/svg">
<path d="M5.381 18.2275C4.01867 18.2275 2.819 17.7293 1.782 16.733C0.745 15.7163 0.2265 14.293 0.2265 12.463C0.2265 10.8363 0.562 9.28083 1.233 7.7965C1.904 6.29183 2.7885 4.9295 3.8865 3.7095C5.00483 2.46916 6.22483 1.422 7.5465 0.567999L10.688 2.886C10.3423 3.17066 9.90517 3.63833 9.3765 4.289C8.84783 4.93966 8.3395 5.65133 7.8515 6.424C7.3635 7.19667 7.028 7.9185 6.845 8.5895C7.86167 8.91483 8.69533 9.474 9.346 10.267C10.017 11.0397 10.3525 12.0462 10.3525 13.2865C10.3525 14.7912 9.84417 15.9908 8.8275 16.8855C7.83117 17.7802 6.68233 18.2275 5.381 18.2275ZM19.655 18.2275C18.2723 18.2275 17.0727 17.7293 16.056 16.733C15.0393 15.7163 14.531 14.293 14.531 12.463C14.531 10.8567 14.8665 9.31133 15.5375 7.827C16.2288 6.32233 17.1235 4.94983 18.2215 3.7095C19.3398 2.44883 20.5395 1.40167 21.8205 0.567999L24.9925 2.886C24.6265 3.21133 24.1792 3.68917 23.6505 4.3195C23.1218 4.94983 22.6237 5.65133 22.156 6.424C21.6883 7.17633 21.3528 7.89817 21.1495 8.5895C22.1458 8.91483 22.9795 9.474 23.6505 10.267C24.3215 11.0397 24.657 12.0462 24.657 13.2865C24.657 14.7912 24.1487 15.9908 23.132 16.8855C22.1357 17.7802 20.9767 18.2275 19.655 18.2275Z" fill="black"/>
</svg>
