<svg width="30" height="30" viewBox="0 0 30 30" fill="none" xmlns="http://www.w3.org/2000/svg">
<circle cx="15" cy="15" r="15" fill="black"/>
<g clip-path="url(#clip0_298_449)">
<path fill-rule="evenodd" clip-rule="evenodd" d="M22.1993 15.0008C22.1993 18.9772 18.9758 22.2008 14.9993 22.2008C11.0229 22.2008 7.79932 18.9772 7.79932 15.0008C7.79932 11.0243 11.0229 7.80078 14.9993 7.80078C18.9758 7.80078 22.1993 11.0243 22.1993 15.0008ZM15.2573 13.1161C14.557 13.4074 13.1574 14.0103 11.0585 14.9248C10.7176 15.0603 10.5391 15.1929 10.5228 15.3226C10.4953 15.5417 10.7697 15.628 11.1434 15.7455C11.1942 15.7614 11.2469 15.778 11.3009 15.7955C11.6685 15.915 12.163 16.0548 12.4201 16.0604C12.6533 16.0654 12.9136 15.9693 13.2009 15.772C15.162 14.4482 16.1743 13.7791 16.2379 13.7646C16.2827 13.7545 16.3449 13.7417 16.387 13.7791C16.4291 13.8165 16.4249 13.8874 16.4205 13.9064C16.3933 14.0223 15.3162 15.0236 14.7588 15.5418C14.585 15.7034 14.4618 15.818 14.4366 15.8442C14.3801 15.9028 14.3226 15.9582 14.2673 16.0115C13.9258 16.3408 13.6697 16.5877 14.2815 16.9909C14.5755 17.1846 14.8108 17.3448 15.0455 17.5047C15.3018 17.6792 15.5575 17.8533 15.8883 18.0702C15.9726 18.1254 16.0531 18.1828 16.1315 18.2387C16.4298 18.4514 16.6978 18.6424 17.0289 18.612C17.2213 18.5943 17.42 18.4133 17.5209 17.8738C17.7594 16.5987 18.2283 13.8359 18.3366 12.6974C18.3461 12.5976 18.3342 12.47 18.3246 12.4139C18.315 12.3579 18.295 12.278 18.2221 12.2189C18.1359 12.1489 18.0027 12.1342 17.9431 12.1352C17.6723 12.14 17.2568 12.2845 15.2573 13.1161Z" fill="white"/>
</g>
<defs>
<clipPath id="clip0_298_449">
<rect width="14.4" height="14.4" fill="white" transform="translate(7.79932 7.80078)"/>
</clipPath>
</defs>
</svg>
