<svg width="30" height="30" viewBox="0 0 30 30" fill="none" xmlns="http://www.w3.org/2000/svg">
<circle cx="15" cy="15" r="15" fill="black"/>
<path d="M7.79932 22.2008L8.81152 18.503C8.18692 17.4206 7.85872 16.1936 7.85932 14.9354C7.86112 11.0018 11.0621 7.80078 14.9951 7.80078C16.9037 7.80138 18.6953 8.54478 20.0429 9.89358C21.3899 11.2424 22.1315 13.0352 22.1309 14.942C22.1291 18.8762 18.9281 22.0772 14.9951 22.0772C13.8011 22.0766 12.6245 21.7772 11.5823 21.2084L7.79932 22.2008ZM11.7575 19.9166C12.7631 20.5136 13.7231 20.8712 14.9927 20.8718C18.2615 20.8718 20.9243 18.2114 20.9261 14.9408C20.9273 11.6636 18.2771 9.00678 14.9975 9.00558C11.7263 9.00558 9.06532 11.666 9.06412 14.936C9.06352 16.271 9.45472 17.2706 10.1117 18.3164L9.51232 20.5052L11.7575 19.9166ZM18.5897 16.6382C18.5453 16.5638 18.4265 16.5194 18.2477 16.43C18.0695 16.3406 17.1929 15.9092 17.0291 15.8498C16.8659 15.7904 16.7471 15.7604 16.6277 15.9392C16.5089 16.1174 16.1669 16.5194 16.0631 16.6382C15.9593 16.757 15.8549 16.772 15.6767 16.6826C15.4985 16.5932 14.9237 16.4054 14.2427 15.7976C13.7129 15.3248 13.3547 14.741 13.2509 14.5622C13.1471 14.384 13.2401 14.2874 13.3289 14.1986C13.4093 14.1188 13.5071 13.9904 13.5965 13.886C13.6871 13.7828 13.7165 13.7084 13.7765 13.589C13.8359 13.4702 13.8065 13.3658 13.7615 13.2764C13.7165 13.1876 13.3601 12.3098 13.2119 11.9528C13.0667 11.6054 12.9197 11.6522 12.8105 11.6468L12.4685 11.6408C12.3497 11.6408 12.1565 11.6852 11.9933 11.864C11.8301 12.0428 11.3693 12.4736 11.3693 13.3514C11.3693 14.2292 12.0083 15.077 12.0971 15.1958C12.1865 15.3146 13.3541 17.1158 15.1427 17.888C15.5681 18.0716 15.9005 18.1814 16.1591 18.2636C16.5863 18.3992 16.9751 18.38 17.2823 18.3344C17.6249 18.2834 18.3371 17.903 18.4859 17.4866C18.6347 17.0696 18.6347 16.7126 18.5897 16.6382Z" fill="white"/>
</svg>
