<svg width="46" height="46" viewBox="0 0 46 46" fill="none" xmlns="http://www.w3.org/2000/svg">
<circle cx="23" cy="23" r="23" fill="#009833"/>
<path fill-rule="evenodd" clip-rule="evenodd" d="M23.052 12.25H22.948C22.0495 12.25 21.3003 12.2499 20.7055 12.3299C20.0777 12.4143 19.5109 12.6 19.0555 13.0555C18.6 13.5109 18.4143 14.0777 18.3299 14.7055C18.2726 15.1319 18.2564 16.1515 18.2518 17.0257C16.2295 17.0917 15.0154 17.3278 14.1716 18.1716C13 19.3431 13 21.2288 13 25C13 28.7712 13 30.6569 14.1716 31.8284C15.3431 33 17.2288 33 21 33H25C28.7712 33 30.6569 33 31.8284 31.8284C33 30.6569 33 28.7712 33 25C33 21.2288 33 19.3431 31.8284 18.1716C30.9846 17.3278 29.7705 17.0917 27.7482 17.0257C27.7436 16.1515 27.7274 15.1319 27.6701 14.7055C27.5857 14.0777 27.4 13.5109 26.9445 13.0555C26.4891 12.6 25.9223 12.4143 25.2945 12.3299C24.6997 12.2499 23.9505 12.25 23.052 12.25ZM26.2479 17.0019C26.2434 16.1552 26.229 15.2441 26.1835 14.9054C26.1214 14.4439 26.0142 14.2464 25.8839 14.1161C25.7536 13.9858 25.5561 13.8786 25.0946 13.8165C24.6116 13.7516 23.964 13.75 23 13.75C22.036 13.75 21.3884 13.7516 20.9054 13.8165C20.4439 13.8786 20.2464 13.9858 20.1161 14.1161C19.9858 14.2464 19.8786 14.4439 19.8165 14.9054C19.771 15.2441 19.7566 16.1552 19.7521 17.0019C20.1435 17 20.5588 17 21 17H25C25.4412 17 25.8565 17 26.2479 17.0019ZM23 20.25C23.4142 20.25 23.75 20.5858 23.75 21V21.0102C24.8388 21.2845 25.75 22.143 25.75 23.3333C25.75 23.7475 25.4142 24.0833 25 24.0833C24.5858 24.0833 24.25 23.7475 24.25 23.3333C24.25 22.9493 23.8242 22.4167 23 22.4167C22.1758 22.4167 21.75 22.9493 21.75 23.3333C21.75 23.7174 22.1758 24.25 23 24.25C24.3849 24.25 25.75 25.2098 25.75 26.6667C25.75 27.857 24.8388 28.7155 23.75 28.9898V29C23.75 29.4142 23.4142 29.75 23 29.75C22.5858 29.75 22.25 29.4142 22.25 29V28.9898C21.1612 28.7155 20.25 27.857 20.25 26.6667C20.25 26.2525 20.5858 25.9167 21 25.9167C21.4142 25.9167 21.75 26.2525 21.75 26.6667C21.75 27.0507 22.1758 27.5833 23 27.5833C23.8242 27.5833 24.25 27.0507 24.25 26.6667C24.25 26.2826 23.8242 25.75 23 25.75C21.6151 25.75 20.25 24.7903 20.25 23.3333C20.25 22.143 21.1612 21.2845 22.25 21.0102V21C22.25 20.5858 22.5858 20.25 23 20.25Z" fill="white"/>
</svg>
