<svg width="46" height="46" viewBox="0 0 46 46" fill="none" xmlns="http://www.w3.org/2000/svg">
<circle cx="23" cy="23" r="23" fill="#009833"/>
<path fill-rule="evenodd" clip-rule="evenodd" d="M13.659 15.5058C13.25 16.0885 13.25 17.8205 13.25 21.2845V22.9905C13.25 29.0984 17.8422 32.0624 20.7234 33.321C21.505 33.6625 21.8958 33.8332 23 33.8332C24.1042 33.8332 24.495 33.6625 25.2766 33.3211C28.1578 32.0625 32.75 29.0984 32.75 22.9905V21.2845C32.75 17.8205 32.75 16.0885 32.341 15.5058C31.9321 14.9231 30.3035 14.3656 27.0463 13.2507L26.4258 13.0383C24.7279 12.4571 23.879 12.1665 23 12.1665C22.121 12.1665 21.2721 12.4571 19.5742 13.0383L18.9537 13.2507C15.6965 14.3656 14.068 14.9231 13.659 15.5058ZM21.7664 19.0601L21.6244 19.3149C21.4684 19.5947 21.3904 19.7346 21.2688 19.8269C21.1472 19.9192 20.9958 19.9535 20.6929 20.022L20.4171 20.0844C19.3513 20.3255 18.8183 20.4461 18.6915 20.8539C18.5648 21.2616 18.9281 21.6864 19.6547 22.5361L19.8427 22.756C20.0492 22.9974 20.1524 23.1182 20.1989 23.2675C20.2453 23.4169 20.2297 23.578 20.1985 23.9001L20.1701 24.1934C20.0602 25.3271 20.0053 25.8939 20.3372 26.1459C20.6692 26.3979 21.1682 26.1682 22.1661 25.7087L22.4243 25.5898C22.7079 25.4592 22.8497 25.3939 23 25.3939C23.1503 25.3939 23.2921 25.4592 23.5757 25.5898L23.8339 25.7087C24.8318 26.1682 25.3308 26.3979 25.6628 26.1459C25.9947 25.8939 25.9398 25.3271 25.8299 24.1934L25.8015 23.9001C25.7703 23.578 25.7547 23.4169 25.8011 23.2675C25.8476 23.1182 25.9508 22.9974 26.1573 22.756L26.3453 22.5361C27.0719 21.6864 27.4352 21.2616 27.3085 20.8539C27.1817 20.4461 26.6487 20.3255 25.5829 20.0844L25.3071 20.022C25.0042 19.9535 24.8528 19.9192 24.7312 19.8269C24.6096 19.7346 24.5316 19.5947 24.3756 19.3149L24.2336 19.0601C23.6847 18.0755 23.4103 17.5832 23 17.5832C22.5897 17.5832 22.3153 18.0755 21.7664 19.0601Z" fill="white"/>
</svg>
